# xmcd
#
# Track frame offsets: 
#        150
#        11991
#        31236
#        47254
#        63385
#        76920
#        88841
#        117607
#        125435
#        145923
#
# Disc length: 2103 seconds
#
# Revision: 0
# Processed by: cddbd v1.5.2PL0 Copyright (c) Steve Scherf et al.
# Submitted via: ExactAudioCopy v1.0b4
#
DISCID=8308350a
DTITLE=B.B. King - Live At The Regal [SHM-CD]
DYEAR=1965
DGENRE=Blues
TTITLE0=Every Day I Have The Blues
TTITLE1=Sweet Little Angel
TTITLE2=It's My Own Fault
TTITLE3=How Blue Can You Get?
TTITLE4=Please Love Me
TTITLE5=You Upset Me Baby
TTITLE6=Worry, Worry
TTITLE7=Woke Up This Morning (My Baby's Gone)
TTITLE8=You Done Lost Your Good Thing Now
TTITLE9=Help The Poor
EXTD=
EXTT0=
EXTT1=
EXTT2=
EXTT3=
EXTT4=
EXTT5=
EXTT6=
EXTT7=
EXTT8=
EXTT9=
PLAYORDER=
